<svg xmlns="http://www.w3.org/2000/svg" viewBox="0 0 2001 2001"><defs><style>.a{opacity:0.6;}.b{fill:none;stroke:#969696;stroke-miterlimit:10;}</style></defs><g class="a"><line class="b" x1="0.5" y1="0.5" x2="0.5" y2="2000.5"/><line class="b" x1="40.5" y1="0.5" x2="40.5" y2="2000.5"/><line class="b" x1="80.5" y1="0.5" x2="80.5" y2="2000.5"/><line class="b" x1="120.5" y1="0.5" x2="120.5" y2="2000.5"/><line class="b" x1="160.5" y1="0.5" x2="160.5" y2="2000.5"/><line class="b" x1="200.5" y1="0.5" x2="200.5" y2="2000.5"/><line class="b" x1="240.5" y1="0.5" x2="240.5" y2="2000.5"/><line class="b" x1="280.5" y1="0.5" x2="280.5" y2="2000.5"/><line class="b" x1="320.5" y1="0.5" x2="320.5" y2="2000.5"/><line class="b" x1="360.5" y1="0.5" x2="360.5" y2="2000.5"/><line class="b" x1="400.5" y1="0.5" x2="400.5" y2="2000.5"/><line class="b" x1="440.5" y1="0.5" x2="440.5" y2="2000.5"/><line class="b" x1="480.5" y1="0.5" x2="480.5" y2="2000.5"/><line class="b" x1="520.5" y1="0.5" x2="520.5" y2="2000.5"/><line class="b" x1="560.5" y1="0.5" x2="560.5" y2="2000.5"/><line class="b" x1="600.5" y1="0.5" x2="600.5" y2="2000.5"/><line class="b" x1="640.5" y1="0.5" x2="640.5" y2="2000.5"/><line class="b" x1="680.5" y1="0.5" x2="680.5" y2="2000.5"/><line class="b" x1="720.5" y1="0.5" x2="720.5" y2="2000.5"/><line class="b" x1="760.5" y1="0.5" x2="760.5" y2="2000.5"/><line class="b" x1="800.5" y1="0.5" x2="800.5" y2="2000.5"/><line class="b" x1="840.5" y1="0.5" x2="840.5" y2="2000.5"/><line class="b" x1="880.5" y1="0.5" x2="880.5" y2="2000.5"/><line class="b" x1="920.5" y1="0.5" x2="920.5" y2="2000.5"/><line class="b" x1="960.5" y1="0.5" x2="960.5" y2="2000.5"/><line class="b" x1="1000.5" y1="0.5" x2="1000.5" y2="2000.5"/><line class="b" x1="1040.5" y1="0.5" x2="1040.5" y2="2000.5"/><line class="b" x1="1080.5" y1="0.5" x2="1080.5" y2="2000.5"/><line class="b" x1="1120.5" y1="0.5" x2="1120.5" y2="2000.5"/><line class="b" x1="1160.5" y1="0.5" x2="1160.5" y2="2000.5"/><line class="b" x1="1200.5" y1="0.5" x2="1200.5" y2="2000.5"/><line class="b" x1="1240.5" y1="0.5" x2="1240.5" y2="2000.5"/><line class="b" x1="1280.5" y1="0.5" x2="1280.5" y2="2000.5"/><line class="b" x1="1320.5" y1="0.5" x2="1320.5" y2="2000.5"/><line class="b" x1="1360.5" y1="0.5" x2="1360.5" y2="2000.5"/><line class="b" x1="1400.5" y1="0.5" x2="1400.5" y2="2000.5"/><line class="b" x1="1440.5" y1="0.5" x2="1440.5" y2="2000.5"/><line class="b" x1="1480.5" y1="0.5" x2="1480.5" y2="2000.5"/><line class="b" x1="1520.5" y1="0.5" x2="1520.5" y2="2000.5"/><line class="b" x1="1560.5" y1="0.5" x2="1560.5" y2="2000.5"/><line class="b" x1="1600.5" y1="0.5" x2="1600.5" y2="2000.5"/><line class="b" x1="1640.5" y1="0.5" x2="1640.5" y2="2000.5"/><line class="b" x1="1680.5" y1="0.5" x2="1680.5" y2="2000.5"/><line class="b" x1="1720.5" y1="0.5" x2="1720.5" y2="2000.5"/><line class="b" x1="1760.5" y1="0.5" x2="1760.5" y2="2000.5"/><line class="b" x1="1800.5" y1="0.5" x2="1800.5" y2="2000.5"/><line class="b" x1="1840.5" y1="0.5" x2="1840.5" y2="2000.5"/><line class="b" x1="1880.5" y1="0.5" x2="1880.5" y2="2000.5"/><line class="b" x1="1920.5" y1="0.5" x2="1920.5" y2="2000.5"/><line class="b" x1="1960.5" y1="0.5" x2="1960.5" y2="2000.5"/><line class="b" x1="2000.5" y1="0.5" x2="2000.5" y2="2000.5"/><line class="b" x1="0.5" y1="2000.5" x2="2000.5" y2="2000.5"/><line class="b" x1="0.5" y1="1960.5" x2="2000.5" y2="1960.5"/><line class="b" x1="0.5" y1="1920.5" x2="2000.5" y2="1920.5"/><line class="b" x1="0.5" y1="1880.5" x2="2000.5" y2="1880.5"/><line class="b" x1="0.5" y1="1840.5" x2="2000.5" y2="1840.5"/><line class="b" x1="0.5" y1="1800.5" x2="2000.5" y2="1800.5"/><line class="b" x1="0.5" y1="1760.5" x2="2000.5" y2="1760.5"/><line class="b" x1="0.5" y1="1720.5" x2="2000.5" y2="1720.5"/><line class="b" x1="0.5" y1="1680.5" x2="2000.5" y2="1680.5"/><line class="b" x1="0.5" y1="1640.5" x2="2000.5" y2="1640.5"/><line class="b" x1="0.5" y1="1600.5" x2="2000.5" y2="1600.5"/><line class="b" x1="0.5" y1="1560.5" x2="2000.5" y2="1560.5"/><line class="b" x1="0.5" y1="1520.5" x2="2000.5" y2="1520.5"/><line class="b" x1="0.5" y1="1480.5" x2="2000.5" y2="1480.5"/><line class="b" x1="0.5" y1="1440.5" x2="2000.5" y2="1440.5"/><line class="b" x1="0.5" y1="1400.5" x2="2000.5" y2="1400.5"/><line class="b" x1="0.5" y1="1360.5" x2="2000.5" y2="1360.5"/><line class="b" x1="0.5" y1="1320.5" x2="2000.5" y2="1320.5"/><line class="b" x1="0.5" y1="1280.5" x2="2000.5" y2="1280.5"/><line class="b" x1="0.5" y1="1240.5" x2="2000.5" y2="1240.5"/><line class="b" x1="0.5" y1="1200.5" x2="2000.5" y2="1200.5"/><line class="b" x1="0.5" y1="1160.5" x2="2000.5" y2="1160.5"/><line class="b" x1="0.5" y1="1120.5" x2="2000.5" y2="1120.5"/><line class="b" x1="0.5" y1="1080.5" x2="2000.5" y2="1080.5"/><line class="b" x1="0.5" y1="1040.5" x2="2000.5" y2="1040.5"/><line class="b" x1="0.5" y1="1000.5" x2="2000.5" y2="1000.5"/><line class="b" x1="0.5" y1="960.5" x2="2000.5" y2="960.5"/><line class="b" x1="0.5" y1="920.5" x2="2000.5" y2="920.5"/><line class="b" x1="0.5" y1="880.5" x2="2000.5" y2="880.5"/><line class="b" x1="0.5" y1="840.5" x2="2000.5" y2="840.5"/><line class="b" x1="0.5" y1="800.5" x2="2000.5" y2="800.5"/><line class="b" x1="0.5" y1="760.5" x2="2000.5" y2="760.5"/><line class="b" x1="0.5" y1="720.5" x2="2000.5" y2="720.5"/><line class="b" x1="0.5" y1="680.5" x2="2000.5" y2="680.5"/><line class="b" x1="0.5" y1="640.5" x2="2000.5" y2="640.5"/><line class="b" x1="0.5" y1="600.5" x2="2000.5" y2="600.5"/><line class="b" x1="0.5" y1="560.5" x2="2000.5" y2="560.5"/><line class="b" x1="0.5" y1="520.5" x2="2000.5" y2="520.5"/><line class="b" x1="0.5" y1="480.5" x2="2000.5" y2="480.5"/><line class="b" x1="0.5" y1="440.5" x2="2000.5" y2="440.5"/><line class="b" x1="0.5" y1="400.5" x2="2000.5" y2="400.5"/><line class="b" x1="0.5" y1="360.5" x2="2000.5" y2="360.5"/><line class="b" x1="0.5" y1="320.5" x2="2000.5" y2="320.5"/><line class="b" x1="0.5" y1="280.5" x2="2000.5" y2="280.5"/><line class="b" x1="0.5" y1="240.5" x2="2000.5" y2="240.5"/><line class="b" x1="0.5" y1="200.5" x2="2000.5" y2="200.5"/><line class="b" x1="0.5" y1="160.5" x2="2000.5" y2="160.5"/><line class="b" x1="0.5" y1="120.5" x2="2000.5" y2="120.5"/><line class="b" x1="0.5" y1="80.5" x2="2000.5" y2="80.5"/><line class="b" x1="0.5" y1="40.5" x2="2000.5" y2="40.5"/><line class="b" x1="0.5" y1="0.5" x2="2000.5" y2="0.5"/></g></svg>